<?xml version="1.0" encoding="UTF-8"?>
<svg width="171px" height="128px" viewBox="0 0 171 128" version="1.1" xmlns="http://www.w3.org/2000/svg" xmlns:xlink="http://www.w3.org/1999/xlink">
    <title>编组 51备份 9</title>
    <defs>
        <path d="M84.7891337,25.7877869 C84.7891337,26.2290011 84.7935702,26.6691791 84.8024011,27.1082787 L37.9119367,127.676072 C37.5706078,127.883899 37.1728701,128 36.7569836,128 L2.22093263,128 C0.994345409,128 0,127.005655 0,125.779067 C0,125.45476 0.0710243338,125.134388 0.208081541,124.840466 L45.7758254,27.1194303 C46.0299047,26.5745516 46.4878468,26.1665827 47.0340699,25.9691576 L47.033279,25.7877869 L84.7891337,25.7877869 Z M84.418145,38.0775857 C89.9498023,66.7081478 114.442364,88.5812041 144.308519,90.1094426 L145.136987,90.1282213 L145.377555,90.1148524 C146.634807,90.1148524 147.654011,91.1340564 147.654011,92.3913083 L147.654011,125.633472 C147.654011,126.785953 146.797597,127.738388 145.686457,127.889124 L145.564198,127.901882 C145.495647,127.918761 145.430756,127.927117 145.37066,127.925943 C111.266261,127.177855 81.2811746,109.717613 63.2799327,83.4095864 L84.418145,38.0775857 Z M141.82216,0 C142.091734,3.18163576 142.234841,6.33379432 142.64562,9.45029498 C142.751795,10.2553138 142.848215,11.1175842 142.935301,12.0277633 C143.717129,15.755801 145.194348,19.2611596 148.192324,22.2614661 C153.244315,27.3173846 159.736858,28.0432105 166.334664,28.4381128 L167.116393,28.4835767 L169.462557,28.6161638 L170.503236,28.6808394 L170.503236,31.1288732 L167.452108,31.3275472 C166.438472,31.3936926 165.427452,31.4607295 164.416669,31.5315698 C151.702686,32.422122 145.091371,37.4563902 142.865157,48.3659115 L142.804704,48.9848774 C142.763746,49.3881576 142.721487,49.7724753 142.677994,50.1364193 L142.645145,50.4055352 C142.3057,53.1249066 142.140388,55.866564 141.907469,58.7799942 L141.874473,59.5647555 C141.868705,59.6972953 141.862772,59.8307498 141.856628,59.9651811 L139.47991,59.9651811 C139.127939,56.6087302 138.910058,53.2640274 138.43587,49.9628581 L138.311757,49.1384911 C138.25402,48.7725927 138.20037,48.3741985 138.15066,47.9460305 C135.951249,37.940695 130.314165,33.1585069 119.492231,31.843933 C116.671453,31.5011417 113.824526,31.3784786 110.753192,31.1360048 L110.567771,28.6789376 C111.497729,28.6228359 112.25225,28.6033429 113.001542,28.5272727 C116.149421,28.2092042 119.335812,28.0879673 122.435196,27.5046041 C131.470909,25.8049107 136.626566,20.5879219 138.264452,11.4442849 C138.431965,10.5089172 138.570641,9.56840765 138.691309,8.62208323 L138.754866,7.93126834 C139.002094,5.34155376 139.153283,2.74280584 139.360099,0 L141.82216,0 Z" id="path-1"></path>
    </defs>
    <g id="品牌手册" stroke="none" stroke-width="1" fill="none" fill-rule="evenodd">
        <g id="编组-51备份-9">
            <mask id="mask-2" fill="white">
                <use xlink:href="#path-1"></use>
            </mask>
            <use id="蒙版" fill="#000000" xlink:href="#path-1"></use>
        </g>
    </g>
</svg>
