<?xml version="1.0" encoding="UTF-8"?>
<svg width="702px" height="128px" viewBox="0 0 702 128" version="1.1" xmlns="http://www.w3.org/2000/svg" xmlns:xlink="http://www.w3.org/1999/xlink">
    <title>品牌绿</title>
    <g id="品牌手册" stroke="none" stroke-width="1" fill="none" fill-rule="evenodd">
        <g id="品牌绿" fill-rule="nonzero">
            <path d="M84.7891337,25.7877869 C84.7891337,26.2290011 84.7935702,26.6691791 84.8024011,27.1082787 L37.9119367,127.676072 C37.5706078,127.883899 37.1728701,128 36.7569836,128 L2.22093263,128 C0.994345409,128 0,127.005655 0,125.779067 C0,125.45476 0.0710243338,125.134388 0.208081541,124.840466 L45.7758254,27.1194303 C46.0299047,26.5745516 46.4878468,26.1665827 47.0340699,25.9691576 L47.033279,25.7877869 L84.7891337,25.7877869 Z M84.418145,38.0775857 C89.9498023,66.7081478 114.442364,88.5812041 144.308519,90.1094426 L145.136987,90.1282213 L145.377555,90.1148524 C146.634807,90.1148524 147.654011,91.1340564 147.654011,92.3913083 L147.654011,125.633472 C147.654011,126.785953 146.797597,127.738388 145.686457,127.889124 L145.564198,127.901882 C145.495647,127.918761 145.430756,127.927117 145.37066,127.926052 C111.266261,127.177855 81.2811746,109.717613 63.2799327,83.4095864 L84.418145,38.0775857 Z M141.82216,0 C142.091734,3.18163576 142.234841,6.33379432 142.64562,9.45029498 C142.751795,10.2553138 142.848215,11.1175842 142.935301,12.0277633 C143.717129,15.755801 145.194348,19.2611596 148.192324,22.2614661 C153.244315,27.3173846 159.736858,28.0432105 166.334664,28.4381128 L167.116393,28.4835767 L169.462557,28.6161638 L170.503236,28.6808394 L170.503236,31.1288732 L167.452108,31.3275472 C166.438472,31.3936926 165.427452,31.4607295 164.416669,31.5315698 C151.702686,32.422122 145.091371,37.4563902 142.865157,48.3659115 L142.804704,48.9848774 C142.763746,49.3881576 142.721487,49.7724753 142.677994,50.1364193 L142.645145,50.4055352 C142.3057,53.1249066 142.140388,55.866564 141.907469,58.7799942 L141.874473,59.5647555 C141.868705,59.6972953 141.862772,59.8307498 141.856628,59.9651811 L139.47991,59.9651811 C139.127939,56.6087302 138.910058,53.2640274 138.43587,49.9628581 L138.311757,49.1384911 C138.25402,48.7725927 138.20037,48.3741985 138.15066,47.9460305 C135.951249,37.940695 130.314165,33.1585069 119.492231,31.843933 C116.671453,31.5011417 113.824526,31.3784786 110.753192,31.1360048 L110.567771,28.6789376 C111.497729,28.6228359 112.25225,28.6033429 113.001542,28.5272727 C116.149421,28.2092042 119.335812,28.0879673 122.435196,27.5046041 C131.470909,25.8049107 136.626566,20.5879219 138.264452,11.4442849 C138.431965,10.5089172 138.570641,9.56840765 138.691309,8.62208323 L138.754866,7.93126834 C139.002094,5.34155376 139.153283,2.74280584 139.360099,0 L141.82216,0 Z" id="path-1" fill="#11E097"></path>
            <path d="M185.886796,111.22883 L220.885653,28.3945444 L221.543939,28.3945444 L256.542796,111.22883 L243.157653,111.22883 L217.703939,46.7168301 L226.151939,41.1214015 L197.406796,111.22883 L185.886796,111.22883 Z M207.171368,81.3865444 L235.477653,81.3865444 L239.537082,91.4802587 L203.66051,91.4802587 L207.171368,81.3865444 Z M280.752462,113.093973 C276.510176,113.093973 273.035891,111.813973 270.329605,109.253973 C267.623319,106.693973 266.197033,103.402544 266.050748,99.3796872 L266.050748,65.2585444 L277.351319,65.2585444 L277.351319,95.3202587 C277.497605,97.6608301 278.174176,99.5808301 279.381033,101.080259 C280.587891,102.579687 282.544462,103.365973 285.250748,103.439116 C287.737605,103.439116 289.950176,102.689402 291.888462,101.189973 C293.826748,99.6905444 295.362748,97.6425444 296.496462,95.045973 C297.630176,92.4494015 298.197033,89.4688301 298.197033,86.1042587 L298.197033,65.2585444 L309.497605,65.2585444 L309.497605,111.22883 L299.294176,111.22883 L298.416462,100.586544 L298.855319,102.341973 C297.904462,104.389973 296.551319,106.23683 294.795891,107.882544 C293.040462,109.528259 290.955891,110.808259 288.542176,111.722544 C286.128462,112.63683 283.531891,113.093973 280.752462,113.093973 Z M328.989556,45.0711158 L340.290128,45.0711158 L340.290128,65.3682587 L352.578128,65.3682587 L352.578128,74.2551158 L340.290128,74.2551158 L340.290128,111.22883 L328.989556,111.22883 L328.989556,74.2551158 L320.870699,74.2551158 L320.870699,65.3682587 L328.989556,65.3682587 L328.989556,45.0711158 Z M358.575222,87.749973 C358.575222,83.141973 359.672365,78.9911158 361.866651,75.2974015 C364.060937,71.6036872 367.096365,68.6962587 370.972937,66.5751158 C374.849508,64.453973 379.274651,63.3934015 384.248365,63.3934015 C389.295222,63.3934015 393.720365,64.453973 397.523794,66.5751158 C401.327222,68.6962587 404.271222,71.6036872 406.355794,75.2974015 C408.440365,78.9911158 409.482651,83.141973 409.482651,87.749973 C409.482651,92.357973 408.440365,96.5271158 406.355794,100.257402 C404.271222,103.987687 401.327222,106.931687 397.523794,109.089402 C393.720365,111.247116 389.258651,112.325973 384.138651,112.325973 C379.238079,112.325973 374.867794,111.338544 371.027794,109.363687 C367.187794,107.38883 364.152365,104.554544 361.921508,100.86083 C359.690651,97.1671158 358.575222,92.7968301 358.575222,87.749973 Z M369.985508,87.8596872 C369.985508,90.7122587 370.607222,93.2905444 371.850651,95.5945444 C373.094079,97.8985444 374.776365,99.7271158 376.897508,101.080259 C379.018651,102.433402 381.395794,103.109973 384.028937,103.109973 C386.735222,103.109973 389.148937,102.433402 391.270079,101.080259 C393.391222,99.7271158 395.055222,97.8985444 396.262079,95.5945444 C397.468937,93.2905444 398.072365,90.7122587 398.072365,87.8596872 C398.072365,85.0071158 397.468937,82.4471158 396.262079,80.1796872 C395.055222,77.9122587 393.391222,76.0836872 391.270079,74.693973 C389.148937,73.3042587 386.735222,72.6094015 384.028937,72.6094015 C381.322651,72.6094015 378.908937,73.3042587 376.787794,74.693973 C374.666651,76.0836872 373.002651,77.9305444 371.795794,80.2345444 C370.588937,82.5385444 369.985508,85.0802587 369.985508,87.8596872 Z M481.856888,105.194544 C480.686602,105.999116 478.94946,106.968259 476.64546,108.101973 C474.34146,109.235687 471.635174,110.20483 468.526602,111.009402 C465.418031,111.813973 461.998602,112.179687 458.268317,112.106544 C452.051174,112.033402 446.474031,110.936259 441.536888,108.815116 C436.599745,106.693973 432.412317,103.786544 428.974602,100.09283 C425.536888,96.3991158 422.88546,92.1568301 421.020317,87.365973 C419.155174,82.5751158 418.222602,77.4734015 418.222602,72.0608301 C418.222602,66.0631158 419.17346,60.5591158 421.075174,55.5488301 C422.976888,50.5385444 425.70146,46.1682587 429.248888,42.437973 C432.796317,38.7076872 436.96546,35.8185444 441.756317,33.7705444 C446.547174,31.7225444 451.795174,30.6985444 457.500317,30.6985444 C462.400888,30.6985444 466.826031,31.3568301 470.775745,32.6734015 C474.72546,33.989973 478.05346,35.525973 480.759745,37.2814015 L476.151745,48.2528301 C474.030602,46.789973 471.415745,45.381973 468.307174,44.0288301 C465.198602,42.6756872 461.742602,41.9991158 457.939174,41.9991158 C454.208888,41.9991158 450.679745,42.7488301 447.351745,44.2482587 C444.023745,45.7476872 441.098031,47.8322587 438.574602,50.501973 C436.051174,53.1716872 434.058031,56.2802587 432.595174,59.8276872 C431.132317,63.3751158 430.400888,67.2334015 430.400888,71.4025444 C430.400888,75.6448301 431.059174,79.557973 432.375745,83.141973 C433.692317,86.725973 435.575745,89.8345444 438.026031,92.4676872 C440.476317,95.1008301 443.420317,97.1488301 446.858031,98.6116872 C450.295745,100.074544 454.172317,100.805973 458.487745,100.805973 C462.583745,100.805973 466.186031,100.184259 469.294602,98.9408301 C472.403174,97.6974015 474.944888,96.2711158 476.919745,94.661973 L481.856888,105.194544 Z M490.706554,87.749973 C490.706554,83.141973 491.803697,78.9911158 493.997983,75.2974015 C496.192268,71.6036872 499.227697,68.6962587 503.104268,66.5751158 C506.98084,64.453973 511.405983,63.3934015 516.379697,63.3934015 C521.426554,63.3934015 525.851697,64.453973 529.655125,66.5751158 C533.458554,68.6962587 536.402554,71.6036872 538.487125,75.2974015 C540.571697,78.9911158 541.613983,83.141973 541.613983,87.749973 C541.613983,92.357973 540.571697,96.5271158 538.487125,100.257402 C536.402554,103.987687 533.458554,106.931687 529.655125,109.089402 C525.851697,111.247116 521.389983,112.325973 516.269983,112.325973 C511.369411,112.325973 506.999125,111.338544 503.159125,109.363687 C499.319125,107.38883 496.283697,104.554544 494.05284,100.86083 C491.821983,97.1671158 490.706554,92.7968301 490.706554,87.749973 Z M502.11684,87.8596872 C502.11684,90.7122587 502.738554,93.2905444 503.981983,95.5945444 C505.225411,97.8985444 506.907697,99.7271158 509.02884,101.080259 C511.149983,102.433402 513.527125,103.109973 516.160268,103.109973 C518.866554,103.109973 521.280268,102.433402 523.401411,101.080259 C525.522554,99.7271158 527.186554,97.8985444 528.393411,95.5945444 C529.600268,93.2905444 530.203697,90.7122587 530.203697,87.8596872 C530.203697,85.0071158 529.600268,82.4471158 528.393411,80.1796872 C527.186554,77.9122587 525.522554,76.0836872 523.401411,74.693973 C521.280268,73.3042587 518.866554,72.6094015 516.160268,72.6094015 C513.453983,72.6094015 511.040268,73.3042587 508.919125,74.693973 C506.797983,76.0836872 505.133983,77.9305444 503.927125,80.2345444 C502.720268,82.5385444 502.11684,85.0802587 502.11684,87.8596872 Z M571.528791,112.325973 C567.213363,112.325973 563.336791,111.320259 559.899077,109.30883 C556.461363,107.297402 553.755077,104.426544 551.78022,100.696259 C549.805363,96.965973 548.817934,92.613973 548.817934,87.6402587 C548.817934,82.5202587 549.878506,78.149973 551.999648,74.5294015 C554.120791,70.9088301 556.991648,68.1294015 560.61222,66.1911158 C564.232791,64.2528301 568.310506,63.2836872 572.845363,63.2836872 C576.35622,63.2836872 579.702506,63.9968301 582.88422,65.4231158 C586.065934,66.8494015 588.534506,68.8425444 590.289934,71.4025444 L589.960791,75.2425444 L589.960791,25.9808301 L601.151648,25.9808301 L601.151648,111.22883 L589.851077,111.22883 L589.851077,100.367116 L591.057934,103.329402 C588.790506,105.889402 586.011077,108.02883 582.719648,109.747687 C579.42822,111.466544 575.697934,112.325973 571.528791,112.325973 Z M575.039648,102.78083 C577.599648,102.78083 579.867077,102.341973 581.841934,101.464259 C583.816791,100.586544 585.499077,99.3248301 586.888791,97.6791158 C588.278506,96.0334015 589.265934,94.1134015 589.851077,91.9191158 L589.851077,82.7031158 C589.339077,80.6551158 588.369934,78.8448301 586.943648,77.2722587 C585.517363,75.6996872 583.78022,74.4745444 581.73222,73.5968301 C579.68422,72.7191158 577.453363,72.2802587 575.039648,72.2802587 C572.333363,72.2802587 569.864791,72.9202587 567.633934,74.2002587 C565.403077,75.4802587 563.611077,77.253973 562.257934,79.5214015 C560.904791,81.7888301 560.22822,84.421973 560.22822,87.4208301 C560.22822,90.2734015 560.904791,92.869973 562.257934,95.2105444 C563.611077,97.5511158 565.421363,99.397973 567.688791,100.751116 C569.95622,102.104259 572.406506,102.78083 575.039648,102.78083 Z M637.868743,112.325973 C632.529314,112.325973 627.957886,111.283687 624.154457,109.199116 C620.351029,107.114544 617.425314,104.225402 615.377314,100.531687 C613.329314,96.837973 612.305314,92.613973 612.305314,87.8596872 C612.305314,83.3248301 613.457314,79.2105444 615.761314,75.5168301 C618.065314,71.8231158 621.173886,68.8791158 625.087029,66.6848301 C629.000171,64.4905444 633.333886,63.3934015 638.088171,63.3934015 C644.232171,63.3934015 649.333886,65.1854015 653.393314,68.7694015 C657.452743,72.3534015 660.177314,77.3636872 661.567029,83.8002587 L624.154457,96.7465444 L621.521314,90.1636872 L651.473314,79.4116872 L649.169314,80.837973 C648.2916,78.5705444 646.901886,76.5774015 645.000171,74.8585444 C643.098457,73.1396872 640.501886,72.2802587 637.210457,72.2802587 C634.577314,72.2802587 632.218457,72.9202587 630.133886,74.2002587 C628.049314,75.4802587 626.4036,77.2356872 625.196743,79.4665444 C623.989886,81.6974015 623.386457,84.3122587 623.386457,87.3111158 C623.386457,90.3831158 624.026457,93.0711158 625.306457,95.3751158 C626.586457,97.6791158 628.341886,99.4894015 630.572743,100.805973 C632.8036,102.122544 635.308743,102.78083 638.088171,102.78083 C640.063029,102.78083 641.946457,102.415116 643.738457,101.683687 C645.530457,100.952259 647.231029,100.037973 648.840171,98.9408301 L653.996743,107.279116 C651.583029,108.815116 648.968171,110.040259 646.152171,110.954544 C643.336171,111.86883 640.575029,112.325973 637.868743,112.325973 Z M681.936694,65.2585444 L683.033837,78.4242587 L682.485266,76.6688301 C683.728694,73.8894015 685.484123,71.5122587 687.751552,69.5374015 C690.01898,67.5625444 692.377837,66.0448301 694.828123,64.9842587 C697.278409,63.9236872 699.344694,63.3934015 701.02698,63.3934015 L700.478409,74.5842587 C696.967552,74.3648301 693.913837,75.0231158 691.317266,76.5591158 C688.720694,78.0951158 686.69098,80.1431158 685.228123,82.7031158 C683.765266,85.2631158 683.033837,88.005973 683.033837,90.9316872 L683.033837,111.22883 L671.84298,111.22883 L671.84298,65.2585444 L681.936694,65.2585444 Z" id="形状" fill="#000000"></path>
        </g>
    </g>
</svg>