<svg xmlns="http://www.w3.org/2000/svg" width="93" height="17" fill="none" viewBox="0 0 93 17"><path fill="#fff" d="M.64 16 6.96.94h.12L13.38 16h-2.22L6.44 3.98l1.38-.9L2.54 16zm3.7-5.48h5.38l.64 1.68H3.78zm13.923 5.8q-1.119 0-1.86-.68-.72-.7-.76-1.8V7.72h1.86v5.46q.04.68.38 1.1.36.42 1.12.44.7 0 1.24-.4.561-.42.9-1.12.34-.72.34-1.62V7.72h1.86V16h-1.7l-.16-2.04.1.36q-.24.58-.74 1.04-.48.44-1.14.7t-1.44.26m9.098-12.24h1.86v3.68h2.28v1.46h-2.28V16h-1.86V9.22h-1.52V7.76h1.52zm5.668 7.7q0-1.24.58-2.24.6-1 1.64-1.58t2.36-.58q1.36 0 2.38.58a4.1 4.1 0 0 1 1.58 1.58q.56 1 .56 2.24t-.56 2.26a4.05 4.05 0 0 1-1.6 1.58q-1.02.58-2.38.58-1.32 0-2.36-.54a4.3 4.3 0 0 1-1.62-1.54q-.58-1-.58-2.34m1.86.02q0 .8.36 1.46.36.64.96 1.02.62.38 1.36.38.78 0 1.38-.38.62-.38.96-1.02.34-.66.34-1.46a3 3 0 0 0-.34-1.44 2.6 2.6 0 0 0-.96-1.04q-.6-.4-1.38-.4-.76 0-1.38.4-.6.4-.96 1.06-.34.64-.34 1.42m16.478 3.44q-.56.44-1.34.7t-1.56.26q-1.36 0-2.38-.54a4.04 4.04 0 0 1-1.6-1.5q-.56-.98-.56-2.3t.6-2.3a4.2 4.2 0 0 1 1.6-1.5q1-.54 2.14-.54 1 0 1.78.28.8.28 1.36.76l-.92 1.2a4 4 0 0 0-.88-.5 3 3 0 0 0-1.18-.22q-.72 0-1.34.38-.6.36-.96 1-.34.64-.34 1.44 0 .76.36 1.42.36.64 1 1.02.64.36 1.46.36.54 0 .98-.16.46-.16.82-.44zm1.681-3.46q0-1.24.58-2.24.6-1 1.64-1.58t2.36-.58q1.36 0 2.38.58a4.1 4.1 0 0 1 1.58 1.58q.56 1 .56 2.24t-.56 2.26a4.05 4.05 0 0 1-1.6 1.58q-1.02.58-2.38.58-1.32 0-2.36-.54a4.3 4.3 0 0 1-1.62-1.54q-.58-1-.58-2.34m1.86.02q0 .8.36 1.46.36.64.96 1.02.62.38 1.36.38.78 0 1.38-.38.621-.38.96-1.02.34-.66.34-1.46a3 3 0 0 0-.34-1.44 2.6 2.6 0 0 0-.96-1.04q-.6-.4-1.38-.4-.759 0-1.38.4-.6.4-.96 1.06-.34.64-.34 1.42m13.119 4.4a4.1 4.1 0 0 1-2.08-.54 4 4 0 0 1-1.46-1.56q-.54-1.02-.54-2.34 0-1.38.56-2.36a3.9 3.9 0 0 1 1.56-1.5q.98-.52 2.2-.52.98 0 1.86.42.9.42 1.4 1.16l-.08.66V.52h1.84V16h-1.86v-2.06l.2.52a4.6 4.6 0 0 1-1.5 1.26q-.92.48-2.1.48m.58-1.58q.74 0 1.32-.26.579-.28.96-.76.38-.48.54-1.14V10.9q-.16-.6-.58-1.04a2.8 2.8 0 0 0-.98-.72 2.8 2.8 0 0 0-1.26-.28q-.76 0-1.4.38-.62.36-1 1t-.38 1.48q0 .82.38 1.48.38.64 1.02 1.04.639.38 1.38.38m11.755 1.58q-1.42 0-2.44-.56a4.13 4.13 0 0 1-1.58-1.56q-.54-1-.54-2.28 0-1.22.62-2.22a4.66 4.66 0 0 1 1.66-1.6q1.04-.6 2.32-.6 1.64 0 2.72.96t1.46 2.64l-6.82 2.4-.44-1.1 5.6-2.04-.4.26a2.7 2.7 0 0 0-.8-1.14q-.56-.5-1.46-.5-.76 0-1.36.38-.6.36-.94 1t-.34 1.46q0 .86.36 1.52.36.64.98 1.02.64.36 1.44.36.54 0 1.04-.2.52-.2.96-.52l.86 1.38q-.62.42-1.4.68a4.6 4.6 0 0 1-1.5.26m8.211-8.48.18 2.4-.1-.32q.32-.76.92-1.28.62-.54 1.28-.82.68-.3 1.18-.3l-.1 1.84q-.94-.06-1.66.36-.7.42-1.12 1.12-.4.7-.4 1.5V16h-1.84V7.72z"></path></svg>